<svg xmlns="http://www.w3.org/2000/svg" viewBox="64 64 142 142">
<g transform="translate(0.000000,270.000000) scale(0.100000,-0.100000)" fill="#000" stroke="none">
<path d="M811 1901 c-27 -25 -31 -36 -31 -81 l0 -51 288 -297 c158 -163 377
-388 487 -499 l200 -203 46 0 c80 0 133 87 96 156 -19 34 -928 973 -960 991
-40 22 -92 16 -126 -16z"/>
<path d="M1609 1783 c-206 -208 -206 -203 7 -421 137 -140 140 -142 183 -142
61 0 111 49 111 109 0 45 -14 65 -127 181 l-63 65 91 98 c75 80 92 104 96 136
10 71 -38 121 -115 121 -34 0 -47 -11 -183 -147z"/>
<path d="M823 1460 c-41 -25 -60 -84 -41 -130 22 -51 521 -556 558 -564 93
-18 163 87 111 169 -10 17 -133 146 -272 288 -280 284 -280 284 -356 237z"/>
<path d="M804 996 c-56 -56 -50 -103 24 -178 67 -66 109 -76 162 -38 68 48 60
129 -20 204 -65 61 -114 64 -166 12z"/>
</g>
</svg>
